<svg width="18" height="22" viewBox="0 0 18 22" fill="none" xmlns="http://www.w3.org/2000/svg">
<path d="M17.657 9.84291C17.5284 9.75719 17.3141 9.80005 17.1856 9.88577L13.8856 12.5001V10.0143C13.8856 9.84291 13.7998 9.71434 13.6713 9.62862C13.5427 9.54291 13.3713 9.58577 13.2427 9.67148L9.21413 12.5858L8.99985 9.88577C8.99985 9.7572 8.91413 9.58577 8.78556 9.54291C8.65699 9.4572 8.48556 9.50005 8.35699 9.54291L3.51413 12.4572V8.51434C3.81413 8.34291 4.07127 8.12862 4.2427 7.82862C4.45699 7.91434 4.71413 7.91434 4.97127 7.91434C5.91413 7.91434 6.72842 7.40005 7.15699 6.62862C7.28556 6.62862 7.41413 6.67148 7.58556 6.67148C9.3427 6.67148 10.757 5.25719 10.757 3.50005C10.757 1.74291 9.3427 0.285767 7.58556 0.285767C5.99985 0.285767 4.71413 1.40005 4.45699 2.94291C3.3427 3.1572 2.52842 4.10005 2.4427 5.2572C1.62842 5.38577 0.985561 6.11434 0.985561 6.97148C0.985561 7.01434 0.985561 7.05719 0.985561 7.05719H0.556989C0.299847 7.05719 0.128418 7.22862 0.128418 7.48577V21.2858C0.128418 21.5429 0.299847 21.7143 0.556989 21.7143H17.4856C17.7427 21.7143 17.9141 21.5429 17.9141 21.2858V10.2286C17.8713 10.0572 17.7856 9.92862 17.657 9.84291ZM1.8427 6.97148C1.8427 6.4572 2.22842 6.07148 2.7427 6.07148C2.78556 6.07148 2.82842 6.07148 2.87127 6.07148C2.99985 6.07148 3.12842 6.02862 3.21413 5.94291C3.29985 5.8572 3.3427 5.72862 3.3427 5.60005C3.3427 5.51434 3.3427 5.47148 3.3427 5.38577C3.3427 4.52862 4.02842 3.7572 4.88556 3.71434C5.09985 3.71434 5.27127 3.54291 5.27127 3.32862C5.31413 2.08577 6.3427 1.14291 7.58556 1.14291C8.87127 1.14291 9.89985 2.17148 9.89985 3.50005C9.89985 4.78577 8.87127 5.81434 7.58556 5.81434C7.41413 5.81434 7.19985 5.77148 7.02842 5.72862C6.81413 5.68577 6.59985 5.77148 6.51413 5.98577C6.25699 6.62862 5.65699 7.05719 4.97127 7.05719C4.71413 7.05719 4.45699 7.01434 4.19985 6.88577C4.07127 6.84291 3.9427 6.84291 3.81413 6.88577C3.68556 6.92862 3.59985 7.0572 3.55699 7.18577C3.55699 7.27148 3.51413 7.3572 3.47128 7.44291C3.42842 7.22862 3.25699 7.10005 3.0427 7.10005H1.79985C1.8427 7.0572 1.8427 7.01434 1.8427 6.97148ZM1.49985 7.91434H2.65699V8.60005H0.985561V7.91434H1.49985ZM17.0141 20.8572H0.985561V9.50005H2.65699V13.2286C2.65699 13.4001 2.7427 13.5286 2.87127 13.6143C2.99985 13.7001 3.17127 13.7001 3.29985 13.6143L8.18556 10.7001L8.39985 13.4429C8.39985 13.6143 8.48556 13.7429 8.65699 13.7858C8.78556 13.8715 8.95699 13.8286 9.08556 13.7429L13.0713 10.8715V13.4001C13.0713 13.5715 13.157 13.7001 13.3284 13.7858C13.457 13.8715 13.6713 13.8286 13.7998 13.7429L17.0998 11.1286V20.8572H17.0141Z" fill="black"/>
<path d="M14.2713 19.5715H16.1142C16.3713 19.5715 16.5428 19.4 16.5428 19.1429V17.3C16.5428 17.0429 16.3713 16.8715 16.1142 16.8715H14.2713C14.0142 16.8715 13.8428 17.0429 13.8428 17.3V19.1429C13.8428 19.4 14.0142 19.5715 14.2713 19.5715ZM14.6999 17.7286H15.6856V18.7143H14.6999V17.7286Z" fill="black"/>
<path d="M8.87104 16.8715H7.02818C6.77104 16.8715 6.59961 17.0429 6.59961 17.3V19.1429C6.59961 19.4 6.77104 19.5715 7.02818 19.5715H8.87104C9.12818 19.5715 9.29961 19.4 9.29961 19.1429V17.3C9.29961 17.0857 9.08532 16.8715 8.87104 16.8715ZM8.44247 18.7143H7.45675V17.7286H8.44247V18.7143Z" fill="black"/>
<path d="M5.27143 14.5573H3.42857C3.17143 14.5573 3 14.7287 3 14.9858V16.8287C3 17.0858 3.17143 17.2573 3.42857 17.2573H5.27143C5.52857 17.2573 5.7 17.0858 5.7 16.8287V14.9858C5.7 14.7715 5.48571 14.5573 5.27143 14.5573ZM4.84286 16.443H3.85714V15.4573H4.84286V16.443Z" fill="black"/>
<path d="M12.4711 14.5573H10.6283C10.3711 14.5573 10.1997 14.7287 10.1997 14.9858V16.8287C10.1997 17.0858 10.3711 17.2573 10.6283 17.2573H12.4711C12.7283 17.2573 12.8997 17.0858 12.8997 16.8287V14.9858C12.8997 14.7715 12.7283 14.5573 12.4711 14.5573ZM12.0426 16.443H11.0568V15.4573H12.0426V16.443Z" fill="black"/>
</svg>
