<svg width="23" height="21" viewBox="0 0 23 21" fill="none" xmlns="http://www.w3.org/2000/svg">
<path d="M20.0905 4.81006H2.91049C1.85562 4.81006 1.00049 5.66519 1.00049 6.72006V18.1701C1.00049 19.2249 1.85562 20.0801 2.91049 20.0801H20.0905C21.1454 20.0801 22.0005 19.2249 22.0005 18.1701V6.72006C22.0005 5.66519 21.1454 4.81006 20.0905 4.81006Z" stroke="#020202" stroke-miterlimit="10" stroke-linecap="square"/>
<path d="M13.4104 11.54H18.1804C18.6858 11.5414 19.1865 11.4422 19.6532 11.2482C20.1199 11.0542 20.5433 10.7693 20.8988 10.41C21.2543 10.0508 21.5348 9.62442 21.7239 9.15573C21.9131 8.68703 22.0071 8.18539 22.0004 7.68002V6.68002C22.0004 6.17346 21.7992 5.68764 21.441 5.32945C21.0828 4.97125 20.597 4.77002 20.0904 4.77002H2.91042C2.65619 4.76996 2.40451 4.82066 2.17013 4.91914C1.93576 5.01762 1.7234 5.16189 1.5455 5.34351C1.36761 5.52513 1.22777 5.74044 1.13417 5.9768C1.04057 6.21317 0.995095 6.46585 1.00042 6.72002V7.72002C0.9991 8.22204 1.09701 8.71937 1.28851 9.18343C1.48002 9.64749 1.76135 10.0691 2.11633 10.4241C2.47131 10.7791 2.89295 11.0604 3.35701 11.2519C3.82107 11.4434 4.3184 11.5413 4.82042 11.54H13.4104Z" stroke="#020202" stroke-miterlimit="10"/>
<path d="M11.5005 10.54V12.45" stroke="#020202" stroke-miterlimit="10" stroke-linecap="square"/>
<path d="M15.3207 4.81H7.68066L8.64066 1H14.3607L15.3207 4.81Z" stroke="#020202" stroke-miterlimit="10" stroke-linecap="square"/>
</svg>
